{
	"asset":{
		"generator":"Khronos glTF Blender I/O v5.2.39",
		"version":"2.0"
	},
	"scene":0,
	"scenes":[
		{
			"name":"Scene",
			"nodes":[
				0
			]
		}
	],
	"nodes":[
		{
			"mesh":0,
			"name":"m_boat",
			"translation":[
				0,
				0.15000000596046448,
				0
			]
		}
	],
	"materials":[
		{
			"doubleSided":true,
			"name":"beach_palette",
			"pbrMetallicRoughness":{
				"baseColorTexture":{
					"index":0
				},
				"metallicFactor":0
			}
		}
	],
	"meshes":[
		{
			"name":"Cube.050",
			"primitives":[
				{
					"attributes":{
						"POSITION":0,
						"NORMAL":1,
						"TEXCOORD_0":2
					},
					"indices":3,
					"material":0
				}
			]
		}
	],
	"textures":[
		{
			"sampler":0,
			"source":0
		}
	],
	"images":[
		{
			"mimeType":"image/png",
			"name":"palette",
			"uri":"palette.png"
		}
	],
	"accessors":[
		{
			"bufferView":0,
			"componentType":5126,
			"count":282,
			"max":[
				0.8263139724731445,
				1.5499999523162842,
				0.2750000059604645
			],
			"min":[
				-0.699999988079071,
				-0.1600000113248825,
				-0.550000011920929
			],
			"type":"VEC3"
		},
		{
			"bufferView":1,
			"componentType":5126,
			"count":282,
			"type":"VEC3"
		},
		{
			"bufferView":2,
			"componentType":5126,
			"count":282,
			"type":"VEC2"
		},
		{
			"bufferView":3,
			"componentType":5123,
			"count":420,
			"type":"SCALAR"
		}
	],
	"bufferViews":[
		{
			"buffer":0,
			"byteLength":3384,
			"byteOffset":0,
			"target":34962
		},
		{
			"buffer":0,
			"byteLength":3384,
			"byteOffset":3384,
			"target":34962
		},
		{
			"buffer":0,
			"byteLength":2256,
			"byteOffset":6768,
			"target":34962
		},
		{
			"buffer":0,
			"byteLength":840,
			"byteOffset":9024,
			"target":34963
		}
	],
	"samplers":[
		{
			"magFilter":9728,
			"minFilter":9984
		}
	],
	"buffers":[
		{
			"byteLength":9864,
			"uri":"m_boat.bin"
		}
	]
}
