{
	"asset":{
		"generator":"Khronos glTF Blender I/O v5.2.39",
		"version":"2.0"
	},
	"scene":0,
	"scenes":[
		{
			"name":"Scene",
			"nodes":[
				0
			]
		}
	],
	"nodes":[
		{
			"mesh":0,
			"name":"m_lighthouse",
			"translation":[
				0,
				0.10000000149011612,
				0
			]
		}
	],
	"materials":[
		{
			"doubleSided":true,
			"name":"beach_palette",
			"pbrMetallicRoughness":{
				"baseColorTexture":{
					"index":0
				},
				"metallicFactor":0
			}
		}
	],
	"meshes":[
		{
			"name":"Cone.047",
			"primitives":[
				{
					"attributes":{
						"POSITION":0,
						"NORMAL":1,
						"TEXCOORD_0":2
					},
					"indices":3,
					"material":0
				}
			]
		}
	],
	"textures":[
		{
			"sampler":0,
			"source":0
		}
	],
	"images":[
		{
			"mimeType":"image/png",
			"name":"palette",
			"uri":"palette.png"
		}
	],
	"accessors":[
		{
			"bufferView":0,
			"componentType":5126,
			"count":409,
			"max":[
				1.2999999523162842,
				4.200000286102295,
				1.2999999523162842
			],
			"min":[
				-1.2999999523162842,
				-0.4000000059604645,
				-1.2999999523162842
			],
			"type":"VEC3"
		},
		{
			"bufferView":1,
			"componentType":5126,
			"count":409,
			"type":"VEC3"
		},
		{
			"bufferView":2,
			"componentType":5126,
			"count":409,
			"type":"VEC2"
		},
		{
			"bufferView":3,
			"componentType":5123,
			"count":1074,
			"type":"SCALAR"
		}
	],
	"bufferViews":[
		{
			"buffer":0,
			"byteLength":4908,
			"byteOffset":0,
			"target":34962
		},
		{
			"buffer":0,
			"byteLength":4908,
			"byteOffset":4908,
			"target":34962
		},
		{
			"buffer":0,
			"byteLength":3272,
			"byteOffset":9816,
			"target":34962
		},
		{
			"buffer":0,
			"byteLength":2148,
			"byteOffset":13088,
			"target":34963
		}
	],
	"samplers":[
		{
			"magFilter":9728,
			"minFilter":9984
		}
	],
	"buffers":[
		{
			"byteLength":15236,
			"uri":"m_lighthouse.bin"
		}
	]
}
