{
	"asset":{
		"generator":"Khronos glTF Blender I/O v5.2.39",
		"version":"2.0"
	},
	"scene":0,
	"scenes":[
		{
			"name":"Scene",
			"nodes":[
				0
			]
		}
	],
	"nodes":[
		{
			"mesh":0,
			"name":"m_market",
			"translation":[
				0,
				1.0299999713897705,
				0
			]
		}
	],
	"materials":[
		{
			"doubleSided":true,
			"name":"beach_palette",
			"pbrMetallicRoughness":{
				"baseColorTexture":{
					"index":0
				},
				"metallicFactor":0
			}
		}
	],
	"meshes":[
		{
			"name":"Cone.031",
			"primitives":[
				{
					"attributes":{
						"POSITION":0,
						"NORMAL":1,
						"TEXCOORD_0":2
					},
					"indices":3,
					"material":0
				}
			]
		}
	],
	"textures":[
		{
			"sampler":0,
			"source":0
		}
	],
	"images":[
		{
			"mimeType":"image/png",
			"name":"palette",
			"uri":"palette.png"
		}
	],
	"accessors":[
		{
			"bufferView":0,
			"componentType":5126,
			"count":1754,
			"max":[
				2.299999952316284,
				1.840000033378601,
				2.299999952316284
			],
			"min":[
				-2.299999952316284,
				-0.029999971389770508,
				-2.299999952316284
			],
			"type":"VEC3"
		},
		{
			"bufferView":1,
			"componentType":5126,
			"count":1754,
			"type":"VEC3"
		},
		{
			"bufferView":2,
			"componentType":5126,
			"count":1754,
			"type":"VEC2"
		},
		{
			"bufferView":3,
			"componentType":5123,
			"count":4764,
			"type":"SCALAR"
		}
	],
	"bufferViews":[
		{
			"buffer":0,
			"byteLength":21048,
			"byteOffset":0,
			"target":34962
		},
		{
			"buffer":0,
			"byteLength":21048,
			"byteOffset":21048,
			"target":34962
		},
		{
			"buffer":0,
			"byteLength":14032,
			"byteOffset":42096,
			"target":34962
		},
		{
			"buffer":0,
			"byteLength":9528,
			"byteOffset":56128,
			"target":34963
		}
	],
	"samplers":[
		{
			"magFilter":9728,
			"minFilter":9984
		}
	],
	"buffers":[
		{
			"byteLength":65656,
			"uri":"m_market.bin"
		}
	]
}
