{
	"asset":{
		"generator":"Khronos glTF Blender I/O v5.2.39",
		"version":"2.0"
	},
	"scene":0,
	"scenes":[
		{
			"name":"Scene",
			"nodes":[
				0
			]
		}
	],
	"nodes":[
		{
			"mesh":0,
			"name":"m_road",
			"translation":[
				-6,
				1.0499999523162842,
				4
			]
		}
	],
	"materials":[
		{
			"doubleSided":true,
			"name":"beach_palette",
			"pbrMetallicRoughness":{
				"baseColorTexture":{
					"index":0
				},
				"metallicFactor":0
			}
		}
	],
	"meshes":[
		{
			"name":"Cone.060",
			"primitives":[
				{
					"attributes":{
						"POSITION":0,
						"NORMAL":1,
						"TEXCOORD_0":2
					},
					"indices":3,
					"material":0
				}
			]
		}
	],
	"textures":[
		{
			"sampler":0,
			"source":0
		}
	],
	"images":[
		{
			"mimeType":"image/png",
			"name":"palette",
			"uri":"palette.png"
		}
	],
	"accessors":[
		{
			"bufferView":0,
			"componentType":5126,
			"count":3216,
			"max":[
				15.699999809265137,
				0.029999999329447746,
				2.200000047683716
			],
			"min":[
				-3.200000047683716,
				-0.47999992966651917,
				-11.199999809265137
			],
			"type":"VEC3"
		},
		{
			"bufferView":1,
			"componentType":5126,
			"count":3216,
			"type":"VEC3"
		},
		{
			"bufferView":2,
			"componentType":5126,
			"count":3216,
			"type":"VEC2"
		},
		{
			"bufferView":3,
			"componentType":5123,
			"count":5628,
			"type":"SCALAR"
		}
	],
	"bufferViews":[
		{
			"buffer":0,
			"byteLength":38592,
			"byteOffset":0,
			"target":34962
		},
		{
			"buffer":0,
			"byteLength":38592,
			"byteOffset":38592,
			"target":34962
		},
		{
			"buffer":0,
			"byteLength":25728,
			"byteOffset":77184,
			"target":34962
		},
		{
			"buffer":0,
			"byteLength":11256,
			"byteOffset":102912,
			"target":34963
		}
	],
	"samplers":[
		{
			"magFilter":9728,
			"minFilter":9984
		}
	],
	"buffers":[
		{
			"byteLength":114168,
			"uri":"m_road.bin"
		}
	]
}
