{
	"asset":{
		"generator":"Khronos glTF Blender I/O v5.2.39",
		"version":"2.0"
	},
	"scene":0,
	"scenes":[
		{
			"name":"Scene",
			"nodes":[
				0
			]
		}
	],
	"nodes":[
		{
			"mesh":0,
			"name":"m_towncafe",
			"translation":[
				0,
				1.649999976158142,
				0
			]
		}
	],
	"materials":[
		{
			"doubleSided":true,
			"name":"beach_palette",
			"pbrMetallicRoughness":{
				"baseColorTexture":{
					"index":0
				},
				"metallicFactor":0
			}
		}
	],
	"meshes":[
		{
			"name":"Cube",
			"primitives":[
				{
					"attributes":{
						"POSITION":0,
						"NORMAL":1,
						"TEXCOORD_0":2
					},
					"indices":3,
					"material":0
				}
			]
		}
	],
	"textures":[
		{
			"sampler":0,
			"source":0
		}
	],
	"images":[
		{
			"mimeType":"image/png",
			"name":"palette",
			"uri":"palette.png"
		}
	],
	"accessors":[
		{
			"bufferView":0,
			"componentType":5126,
			"count":1052,
			"max":[
				1.100000023841858,
				1.8000000715255737,
				1.2371423244476318
			],
			"min":[
				-1.100000023841858,
				-0.6499999761581421,
				-0.8999999761581421
			],
			"type":"VEC3"
		},
		{
			"bufferView":1,
			"componentType":5126,
			"count":1052,
			"type":"VEC3"
		},
		{
			"bufferView":2,
			"componentType":5126,
			"count":1052,
			"type":"VEC2"
		},
		{
			"bufferView":3,
			"componentType":5123,
			"count":2400,
			"type":"SCALAR"
		}
	],
	"bufferViews":[
		{
			"buffer":0,
			"byteLength":12624,
			"byteOffset":0,
			"target":34962
		},
		{
			"buffer":0,
			"byteLength":12624,
			"byteOffset":12624,
			"target":34962
		},
		{
			"buffer":0,
			"byteLength":8416,
			"byteOffset":25248,
			"target":34962
		},
		{
			"buffer":0,
			"byteLength":4800,
			"byteOffset":33664,
			"target":34963
		}
	],
	"samplers":[
		{
			"magFilter":9728,
			"minFilter":9984
		}
	],
	"buffers":[
		{
			"byteLength":38464,
			"uri":"m_towncafe.bin"
		}
	]
}
