{
	"asset":{
		"generator":"Khronos glTF Blender I/O v5.2.39",
		"version":"2.0"
	},
	"scene":0,
	"scenes":[
		{
			"name":"Scene",
			"nodes":[
				0
			]
		}
	],
	"nodes":[
		{
			"mesh":0,
			"name":"t_bed_teal",
			"translation":[
				0,
				0.03999999910593033,
				0
			]
		}
	],
	"materials":[
		{
			"doubleSided":true,
			"name":"beach_palette",
			"pbrMetallicRoughness":{
				"baseColorTexture":{
					"index":0
				},
				"metallicFactor":0
			}
		}
	],
	"meshes":[
		{
			"name":"Cone.024",
			"primitives":[
				{
					"attributes":{
						"POSITION":0,
						"NORMAL":1,
						"TEXCOORD_0":2
					},
					"indices":3,
					"material":0
				}
			]
		}
	],
	"textures":[
		{
			"sampler":0,
			"source":0
		}
	],
	"images":[
		{
			"mimeType":"image/png",
			"name":"palette",
			"uri":"palette.png"
		}
	],
	"accessors":[
		{
			"bufferView":0,
			"componentType":5126,
			"count":744,
			"max":[
				0.42000001668930054,
				0.18000000715255737,
				0.42000001668930054
			],
			"min":[
				-0.42000001668930054,
				-0.03999999910593033,
				-0.42000001668930054
			],
			"type":"VEC3"
		},
		{
			"bufferView":1,
			"componentType":5126,
			"count":744,
			"type":"VEC3"
		},
		{
			"bufferView":2,
			"componentType":5126,
			"count":744,
			"type":"VEC2"
		},
		{
			"bufferView":3,
			"componentType":5123,
			"count":2856,
			"type":"SCALAR"
		}
	],
	"bufferViews":[
		{
			"buffer":0,
			"byteLength":8928,
			"byteOffset":0,
			"target":34962
		},
		{
			"buffer":0,
			"byteLength":8928,
			"byteOffset":8928,
			"target":34962
		},
		{
			"buffer":0,
			"byteLength":5952,
			"byteOffset":17856,
			"target":34962
		},
		{
			"buffer":0,
			"byteLength":5712,
			"byteOffset":23808,
			"target":34963
		}
	],
	"samplers":[
		{
			"magFilter":9728,
			"minFilter":9984
		}
	],
	"buffers":[
		{
			"byteLength":29520,
			"uri":"t_bed_teal.bin"
		}
	]
}
