{
	"asset":{
		"generator":"Khronos glTF Blender I/O v5.2.39",
		"version":"2.0"
	},
	"scene":0,
	"scenes":[
		{
			"name":"Scene",
			"nodes":[
				0
			]
		}
	],
	"nodes":[
		{
			"mesh":0,
			"name":"t_cattree",
			"translation":[
				0,
				0.05000000074505806,
				0
			]
		}
	],
	"materials":[
		{
			"doubleSided":true,
			"name":"beach_palette",
			"pbrMetallicRoughness":{
				"baseColorTexture":{
					"index":0
				},
				"metallicFactor":0
			}
		}
	],
	"meshes":[
		{
			"name":"Cube",
			"primitives":[
				{
					"attributes":{
						"POSITION":0,
						"NORMAL":1,
						"TEXCOORD_0":2
					},
					"indices":3,
					"material":0
				}
			]
		}
	],
	"textures":[
		{
			"sampler":0,
			"source":0
		}
	],
	"images":[
		{
			"mimeType":"image/png",
			"name":"palette",
			"uri":"palette.png"
		}
	],
	"accessors":[
		{
			"bufferView":0,
			"componentType":5126,
			"count":2252,
			"max":[
				0.5900000333786011,
				1.7300000190734863,
				0.4300000071525574
			],
			"min":[
				-0.5873205065727234,
				-0.05000000074505806,
				-0.42500001192092896
			],
			"type":"VEC3"
		},
		{
			"bufferView":1,
			"componentType":5126,
			"count":2252,
			"type":"VEC3"
		},
		{
			"bufferView":2,
			"componentType":5126,
			"count":2252,
			"type":"VEC2"
		},
		{
			"bufferView":3,
			"componentType":5123,
			"count":5136,
			"type":"SCALAR"
		}
	],
	"bufferViews":[
		{
			"buffer":0,
			"byteLength":27024,
			"byteOffset":0,
			"target":34962
		},
		{
			"buffer":0,
			"byteLength":27024,
			"byteOffset":27024,
			"target":34962
		},
		{
			"buffer":0,
			"byteLength":18016,
			"byteOffset":54048,
			"target":34962
		},
		{
			"buffer":0,
			"byteLength":10272,
			"byteOffset":72064,
			"target":34963
		}
	],
	"samplers":[
		{
			"magFilter":9728,
			"minFilter":9984
		}
	],
	"buffers":[
		{
			"byteLength":82336,
			"uri":"t_cattree.bin"
		}
	]
}
