{
	"asset":{
		"generator":"Khronos glTF Blender I/O v5.2.39",
		"version":"2.0"
	},
	"scene":0,
	"scenes":[
		{
			"name":"Scene",
			"nodes":[
				0
			]
		}
	],
	"nodes":[
		{
			"mesh":0,
			"name":"t_fence_4",
			"translation":[
				0,
				0.550000011920929,
				0
			]
		}
	],
	"materials":[
		{
			"doubleSided":true,
			"name":"beach_palette",
			"pbrMetallicRoughness":{
				"baseColorTexture":{
					"index":0
				},
				"metallicFactor":0
			}
		}
	],
	"meshes":[
		{
			"name":"Cube.030",
			"primitives":[
				{
					"attributes":{
						"POSITION":0,
						"NORMAL":1,
						"TEXCOORD_0":2
					},
					"indices":3,
					"material":0
				}
			]
		}
	],
	"textures":[
		{
			"sampler":0,
			"source":0
		}
	],
	"images":[
		{
			"mimeType":"image/png",
			"name":"palette",
			"uri":"palette.png"
		}
	],
	"accessors":[
		{
			"bufferView":0,
			"componentType":5126,
			"count":968,
			"max":[
				2.045254945755005,
				0.23499999940395355,
				0.02500000037252903
			],
			"min":[
				-2.045254945755005,
				-0.550000011920929,
				-0.07525483518838882
			],
			"type":"VEC3"
		},
		{
			"bufferView":1,
			"componentType":5126,
			"count":968,
			"type":"VEC3"
		},
		{
			"bufferView":2,
			"componentType":5126,
			"count":968,
			"type":"VEC2"
		},
		{
			"bufferView":3,
			"componentType":5123,
			"count":1314,
			"type":"SCALAR"
		}
	],
	"bufferViews":[
		{
			"buffer":0,
			"byteLength":11616,
			"byteOffset":0,
			"target":34962
		},
		{
			"buffer":0,
			"byteLength":11616,
			"byteOffset":11616,
			"target":34962
		},
		{
			"buffer":0,
			"byteLength":7744,
			"byteOffset":23232,
			"target":34962
		},
		{
			"buffer":0,
			"byteLength":2628,
			"byteOffset":30976,
			"target":34963
		}
	],
	"samplers":[
		{
			"magFilter":9728,
			"minFilter":9984
		}
	],
	"buffers":[
		{
			"byteLength":33604,
			"uri":"t_fence_4.bin"
		}
	]
}
