{
	"asset":{
		"generator":"Khronos glTF Blender I/O v5.2.39",
		"version":"2.0"
	},
	"scene":0,
	"scenes":[
		{
			"name":"Scene",
			"nodes":[
				0
			]
		}
	],
	"nodes":[
		{
			"mesh":0,
			"name":"t_flowerbox",
			"translation":[
				0,
				0.20000000298023224,
				0
			]
		}
	],
	"materials":[
		{
			"doubleSided":true,
			"name":"beach_palette",
			"pbrMetallicRoughness":{
				"baseColorTexture":{
					"index":0
				},
				"metallicFactor":0
			}
		}
	],
	"meshes":[
		{
			"name":"Cube.055",
			"primitives":[
				{
					"attributes":{
						"POSITION":0,
						"NORMAL":1,
						"TEXCOORD_0":2
					},
					"indices":3,
					"material":0
				}
			]
		}
	],
	"textures":[
		{
			"sampler":0,
			"source":0
		}
	],
	"images":[
		{
			"mimeType":"image/png",
			"name":"palette",
			"uri":"palette.png"
		}
	],
	"accessors":[
		{
			"bufferView":0,
			"componentType":5126,
			"count":1212,
			"max":[
				0.6299999952316284,
				0.4500000476837158,
				0.25
			],
			"min":[
				-0.6299999952316284,
				-0.20000000298023224,
				-0.25
			],
			"type":"VEC3"
		},
		{
			"bufferView":1,
			"componentType":5126,
			"count":1212,
			"type":"VEC3"
		},
		{
			"bufferView":2,
			"componentType":5126,
			"count":1212,
			"type":"VEC2"
		},
		{
			"bufferView":3,
			"componentType":5123,
			"count":4572,
			"type":"SCALAR"
		}
	],
	"bufferViews":[
		{
			"buffer":0,
			"byteLength":14544,
			"byteOffset":0,
			"target":34962
		},
		{
			"buffer":0,
			"byteLength":14544,
			"byteOffset":14544,
			"target":34962
		},
		{
			"buffer":0,
			"byteLength":9696,
			"byteOffset":29088,
			"target":34962
		},
		{
			"buffer":0,
			"byteLength":9144,
			"byteOffset":38784,
			"target":34963
		}
	],
	"samplers":[
		{
			"magFilter":9728,
			"minFilter":9984
		}
	],
	"buffers":[
		{
			"byteLength":47928,
			"uri":"t_flowerbox.bin"
		}
	]
}
