{
	"asset":{
		"generator":"Khronos glTF Blender I/O v5.2.39",
		"version":"2.0"
	},
	"scene":0,
	"scenes":[
		{
			"name":"Scene",
			"nodes":[
				0
			]
		}
	],
	"nodes":[
		{
			"mesh":0,
			"name":"t_pawsign",
			"translation":[
				0,
				1.2000000476837158,
				0
			]
		}
	],
	"materials":[
		{
			"doubleSided":true,
			"name":"beach_palette",
			"pbrMetallicRoughness":{
				"baseColorTexture":{
					"index":0
				},
				"metallicFactor":0
			}
		}
	],
	"meshes":[
		{
			"name":"Cone.079",
			"primitives":[
				{
					"attributes":{
						"POSITION":0,
						"NORMAL":1,
						"TEXCOORD_0":2
					},
					"indices":3,
					"material":0
				}
			]
		}
	],
	"textures":[
		{
			"sampler":0,
			"source":0
		}
	],
	"images":[
		{
			"mimeType":"image/png",
			"name":"palette",
			"uri":"palette.png"
		}
	],
	"accessors":[
		{
			"bufferView":0,
			"componentType":5126,
			"count":940,
			"max":[
				0.8199999928474426,
				1.2000000476837158,
				0.07000000029802322
			],
			"min":[
				-0.05999999865889549,
				-1.2000000476837158,
				-0.05999999865889549
			],
			"type":"VEC3"
		},
		{
			"bufferView":1,
			"componentType":5126,
			"count":940,
			"type":"VEC3"
		},
		{
			"bufferView":2,
			"componentType":5126,
			"count":940,
			"type":"VEC2"
		},
		{
			"bufferView":3,
			"componentType":5123,
			"count":3324,
			"type":"SCALAR"
		}
	],
	"bufferViews":[
		{
			"buffer":0,
			"byteLength":11280,
			"byteOffset":0,
			"target":34962
		},
		{
			"buffer":0,
			"byteLength":11280,
			"byteOffset":11280,
			"target":34962
		},
		{
			"buffer":0,
			"byteLength":7520,
			"byteOffset":22560,
			"target":34962
		},
		{
			"buffer":0,
			"byteLength":6648,
			"byteOffset":30080,
			"target":34963
		}
	],
	"samplers":[
		{
			"magFilter":9728,
			"minFilter":9984
		}
	],
	"buffers":[
		{
			"byteLength":36728,
			"uri":"t_pawsign.bin"
		}
	]
}
