{
	"asset":{
		"generator":"Khronos glTF Blender I/O v5.2.39",
		"version":"2.0"
	},
	"scene":0,
	"scenes":[
		{
			"name":"Scene",
			"nodes":[
				0
			]
		}
	],
	"nodes":[
		{
			"mesh":0,
			"name":"b_cabana_navy",
			"translation":[
				0,
				0.8999999761581421,
				0
			]
		}
	],
	"materials":[
		{
			"doubleSided":true,
			"name":"beach_palette",
			"pbrMetallicRoughness":{
				"baseColorTexture":{
					"index":0
				},
				"metallicFactor":0
			}
		}
	],
	"meshes":[
		{
			"name":"Cube.043",
			"primitives":[
				{
					"attributes":{
						"POSITION":0,
						"NORMAL":1,
						"TEXCOORD_0":2
					},
					"indices":3,
					"material":0
				}
			]
		}
	],
	"textures":[
		{
			"sampler":0,
			"source":0
		}
	],
	"images":[
		{
			"mimeType":"image/png",
			"name":"palette",
			"uri":"palette.png"
		}
	],
	"accessors":[
		{
			"bufferView":0,
			"componentType":5126,
			"count":876,
			"max":[
				1,
				2.25,
				0.9545941352844238
			],
			"min":[
				-1,
				-0.8999999761581421,
				-0.9545941352844238
			],
			"type":"VEC3"
		},
		{
			"bufferView":1,
			"componentType":5126,
			"count":876,
			"type":"VEC3"
		},
		{
			"bufferView":2,
			"componentType":5126,
			"count":876,
			"type":"VEC2"
		},
		{
			"bufferView":3,
			"componentType":5123,
			"count":1320,
			"type":"SCALAR"
		}
	],
	"bufferViews":[
		{
			"buffer":0,
			"byteLength":10512,
			"byteOffset":0,
			"target":34962
		},
		{
			"buffer":0,
			"byteLength":10512,
			"byteOffset":10512,
			"target":34962
		},
		{
			"buffer":0,
			"byteLength":7008,
			"byteOffset":21024,
			"target":34962
		},
		{
			"buffer":0,
			"byteLength":2640,
			"byteOffset":28032,
			"target":34963
		}
	],
	"samplers":[
		{
			"magFilter":9728,
			"minFilter":9984
		}
	],
	"buffers":[
		{
			"byteLength":30672,
			"uri":"b_cabana_navy.bin"
		}
	]
}
