{
	"asset":{
		"generator":"Khronos glTF Blender I/O v5.2.39",
		"version":"2.0"
	},
	"scene":0,
	"scenes":[
		{
			"name":"Scene",
			"nodes":[
				0
			]
		}
	],
	"nodes":[
		{
			"mesh":0,
			"name":"b_chair_coral",
			"translation":[
				-0.17000000178813934,
				0.2199999988079071,
				0.17000000178813934
			]
		}
	],
	"materials":[
		{
			"doubleSided":true,
			"name":"beach_palette",
			"pbrMetallicRoughness":{
				"baseColorTexture":{
					"index":0
				},
				"metallicFactor":0
			}
		}
	],
	"meshes":[
		{
			"name":"Cone.005",
			"primitives":[
				{
					"attributes":{
						"POSITION":0,
						"NORMAL":1,
						"TEXCOORD_0":2
					},
					"indices":3,
					"material":0
				}
			]
		}
	],
	"textures":[
		{
			"sampler":0,
			"source":0
		}
	],
	"images":[
		{
			"mimeType":"image/png",
			"name":"palette",
			"uri":"palette.png"
		}
	],
	"accessors":[
		{
			"bufferView":0,
			"componentType":5126,
			"count":1368,
			"max":[
				0.38999998569488525,
				0.7406287789344788,
				0.04999999701976776
			],
			"min":[
				-0.04999999701976776,
				-0.2199999988079071,
				-0.4266374707221985
			],
			"type":"VEC3"
		},
		{
			"bufferView":1,
			"componentType":5126,
			"count":1368,
			"type":"VEC3"
		},
		{
			"bufferView":2,
			"componentType":5126,
			"count":1368,
			"type":"VEC2"
		},
		{
			"bufferView":3,
			"componentType":5123,
			"count":2124,
			"type":"SCALAR"
		}
	],
	"bufferViews":[
		{
			"buffer":0,
			"byteLength":16416,
			"byteOffset":0,
			"target":34962
		},
		{
			"buffer":0,
			"byteLength":16416,
			"byteOffset":16416,
			"target":34962
		},
		{
			"buffer":0,
			"byteLength":10944,
			"byteOffset":32832,
			"target":34962
		},
		{
			"buffer":0,
			"byteLength":4248,
			"byteOffset":43776,
			"target":34963
		}
	],
	"samplers":[
		{
			"magFilter":9728,
			"minFilter":9984
		}
	],
	"buffers":[
		{
			"byteLength":48024,
			"uri":"b_chair_coral.bin"
		}
	]
}
