{
	"asset":{
		"generator":"Khronos glTF Blender I/O v5.2.39",
		"version":"2.0"
	},
	"scene":0,
	"scenes":[
		{
			"name":"Scene",
			"nodes":[
				0
			]
		}
	],
	"nodes":[
		{
			"mesh":0,
			"name":"b_counter_teal",
			"translation":[
				-0.824999988079071,
				0.44999998807907104,
				0
			]
		}
	],
	"materials":[
		{
			"doubleSided":true,
			"name":"beach_palette",
			"pbrMetallicRoughness":{
				"baseColorTexture":{
					"index":0
				},
				"metallicFactor":0
			}
		}
	],
	"meshes":[
		{
			"name":"Cube.099",
			"primitives":[
				{
					"attributes":{
						"POSITION":0,
						"NORMAL":1,
						"TEXCOORD_0":2
					},
					"indices":3,
					"material":0
				}
			]
		}
	],
	"textures":[
		{
			"sampler":0,
			"source":0
		}
	],
	"images":[
		{
			"mimeType":"image/png",
			"name":"palette",
			"uri":"palette.png"
		}
	],
	"accessors":[
		{
			"bufferView":0,
			"componentType":5126,
			"count":3072,
			"max":[
				1.7649999856948853,
				0.4910000264644623,
				0.41999998688697815
			],
			"min":[
				-0.11500000953674316,
				-0.44999998807907104,
				-0.41999998688697815
			],
			"type":"VEC3"
		},
		{
			"bufferView":1,
			"componentType":5126,
			"count":3072,
			"type":"VEC3"
		},
		{
			"bufferView":2,
			"componentType":5126,
			"count":3072,
			"type":"VEC2"
		},
		{
			"bufferView":3,
			"componentType":5123,
			"count":4608,
			"type":"SCALAR"
		}
	],
	"bufferViews":[
		{
			"buffer":0,
			"byteLength":36864,
			"byteOffset":0,
			"target":34962
		},
		{
			"buffer":0,
			"byteLength":36864,
			"byteOffset":36864,
			"target":34962
		},
		{
			"buffer":0,
			"byteLength":24576,
			"byteOffset":73728,
			"target":34962
		},
		{
			"buffer":0,
			"byteLength":9216,
			"byteOffset":98304,
			"target":34963
		}
	],
	"samplers":[
		{
			"magFilter":9728,
			"minFilter":9984
		}
	],
	"buffers":[
		{
			"byteLength":107520,
			"uri":"b_counter_teal.bin"
		}
	]
}
