{
	"asset":{
		"generator":"Khronos glTF Blender I/O v5.2.39",
		"version":"2.0"
	},
	"scene":0,
	"scenes":[
		{
			"name":"Scene",
			"nodes":[
				0
			]
		}
	],
	"nodes":[
		{
			"mesh":0,
			"name":"b_lounger_navy",
			"translation":[
				-0.30000001192092896,
				0.30000001192092896,
				0
			]
		}
	],
	"materials":[
		{
			"doubleSided":true,
			"name":"beach_palette",
			"pbrMetallicRoughness":{
				"baseColorTexture":{
					"index":0
				},
				"metallicFactor":0
			}
		}
	],
	"meshes":[
		{
			"name":"Cube.010",
			"primitives":[
				{
					"attributes":{
						"POSITION":0,
						"NORMAL":1,
						"TEXCOORD_0":2
					},
					"indices":3,
					"material":0
				}
			]
		}
	],
	"textures":[
		{
			"sampler":0,
			"source":0
		}
	],
	"images":[
		{
			"mimeType":"image/png",
			"name":"palette",
			"uri":"palette.png"
		}
	],
	"accessors":[
		{
			"bufferView":0,
			"componentType":5126,
			"count":3432,
			"max":[
				0.6200000047683716,
				0.4223997890949249,
				0.875
			],
			"min":[
				-0.019999999552965164,
				-0.30000001192092896,
				-0.875
			],
			"type":"VEC3"
		},
		{
			"bufferView":1,
			"componentType":5126,
			"count":3432,
			"type":"VEC3"
		},
		{
			"bufferView":2,
			"componentType":5126,
			"count":3432,
			"type":"VEC2"
		},
		{
			"bufferView":3,
			"componentType":5123,
			"count":5196,
			"type":"SCALAR"
		}
	],
	"bufferViews":[
		{
			"buffer":0,
			"byteLength":41184,
			"byteOffset":0,
			"target":34962
		},
		{
			"buffer":0,
			"byteLength":41184,
			"byteOffset":41184,
			"target":34962
		},
		{
			"buffer":0,
			"byteLength":27456,
			"byteOffset":82368,
			"target":34962
		},
		{
			"buffer":0,
			"byteLength":10392,
			"byteOffset":109824,
			"target":34963
		}
	],
	"samplers":[
		{
			"magFilter":9728,
			"minFilter":9984
		}
	],
	"buffers":[
		{
			"byteLength":120216,
			"uri":"b_lounger_navy.bin"
		}
	]
}
