{
	"asset":{
		"generator":"Khronos glTF Blender I/O v5.2.39",
		"version":"2.0"
	},
	"scene":0,
	"scenes":[
		{
			"name":"Scene",
			"nodes":[
				0
			]
		}
	],
	"nodes":[
		{
			"mesh":0,
			"name":"b_parasol_navy",
			"translation":[
				0,
				1.2000000476837158,
				0
			]
		}
	],
	"materials":[
		{
			"doubleSided":true,
			"name":"beach_palette",
			"pbrMetallicRoughness":{
				"baseColorTexture":{
					"index":0
				},
				"metallicFactor":0
			}
		}
	],
	"meshes":[
		{
			"name":"Cone.017",
			"primitives":[
				{
					"attributes":{
						"POSITION":0,
						"NORMAL":1,
						"TEXCOORD_0":2
					},
					"indices":3,
					"material":0
				}
			]
		}
	],
	"textures":[
		{
			"sampler":0,
			"source":0
		}
	],
	"images":[
		{
			"mimeType":"image/png",
			"name":"palette",
			"uri":"palette.png"
		}
	],
	"accessors":[
		{
			"bufferView":0,
			"componentType":5126,
			"count":418,
			"max":[
				1.2363271713256836,
				1.5799999237060547,
				1.2363271713256836
			],
			"min":[
				-1.2363271713256836,
				-1.2000000476837158,
				-1.2363271713256836
			],
			"type":"VEC3"
		},
		{
			"bufferView":1,
			"componentType":5126,
			"count":418,
			"type":"VEC3"
		},
		{
			"bufferView":2,
			"componentType":5126,
			"count":418,
			"type":"VEC2"
		},
		{
			"bufferView":3,
			"componentType":5123,
			"count":780,
			"type":"SCALAR"
		}
	],
	"bufferViews":[
		{
			"buffer":0,
			"byteLength":5016,
			"byteOffset":0,
			"target":34962
		},
		{
			"buffer":0,
			"byteLength":5016,
			"byteOffset":5016,
			"target":34962
		},
		{
			"buffer":0,
			"byteLength":3344,
			"byteOffset":10032,
			"target":34962
		},
		{
			"buffer":0,
			"byteLength":1560,
			"byteOffset":13376,
			"target":34963
		}
	],
	"samplers":[
		{
			"magFilter":9728,
			"minFilter":9984
		}
	],
	"buffers":[
		{
			"byteLength":14936,
			"uri":"b_parasol_navy.bin"
		}
	]
}
