{
	"asset":{
		"generator":"Khronos glTF Blender I/O v5.2.39",
		"version":"2.0"
	},
	"scene":0,
	"scenes":[
		{
			"name":"Scene",
			"nodes":[
				0
			]
		}
	],
	"nodes":[
		{
			"mesh":0,
			"name":"b_palm_a",
			"translation":[
				0.009710744023323059,
				0.19090908765792847,
				-0.00020661157032009214
			]
		}
	],
	"materials":[
		{
			"doubleSided":true,
			"name":"beach_palette",
			"pbrMetallicRoughness":{
				"baseColorTexture":{
					"index":0
				},
				"metallicFactor":0
			}
		}
	],
	"meshes":[
		{
			"name":"Cone.082",
			"primitives":[
				{
					"attributes":{
						"POSITION":0,
						"NORMAL":1,
						"TEXCOORD_0":2
					},
					"indices":3,
					"material":0
				}
			]
		}
	],
	"textures":[
		{
			"sampler":0,
			"source":0
		}
	],
	"images":[
		{
			"mimeType":"image/png",
			"name":"palette",
			"uri":"palette.png"
		}
	],
	"accessors":[
		{
			"bufferView":0,
			"componentType":5126,
			"count":994,
			"max":[
				2.190289258956909,
				4.146965503692627,
				1.6002066135406494
			],
			"min":[
				-1.3347108364105225,
				-0.20276424288749695,
				-2.049793243408203
			],
			"type":"VEC3"
		},
		{
			"bufferView":1,
			"componentType":5126,
			"count":994,
			"type":"VEC3"
		},
		{
			"bufferView":2,
			"componentType":5126,
			"count":994,
			"type":"VEC2"
		},
		{
			"bufferView":3,
			"componentType":5123,
			"count":3420,
			"type":"SCALAR"
		}
	],
	"bufferViews":[
		{
			"buffer":0,
			"byteLength":11928,
			"byteOffset":0,
			"target":34962
		},
		{
			"buffer":0,
			"byteLength":11928,
			"byteOffset":11928,
			"target":34962
		},
		{
			"buffer":0,
			"byteLength":7952,
			"byteOffset":23856,
			"target":34962
		},
		{
			"buffer":0,
			"byteLength":6840,
			"byteOffset":31808,
			"target":34963
		}
	],
	"samplers":[
		{
			"magFilter":9728,
			"minFilter":9984
		}
	],
	"buffers":[
		{
			"byteLength":38648,
			"uri":"b_palm_a.bin"
		}
	]
}
