{
	"asset":{
		"generator":"Khronos glTF Blender I/O v5.2.39",
		"version":"2.0"
	},
	"scene":0,
	"scenes":[
		{
			"name":"Scene",
			"nodes":[
				0
			]
		}
	],
	"nodes":[
		{
			"mesh":0,
			"name":"b_till",
			"translation":[
				-0.6222222447395325,
				0.44999998807907104,
				0
			]
		}
	],
	"materials":[
		{
			"doubleSided":true,
			"name":"beach_palette",
			"pbrMetallicRoughness":{
				"baseColorTexture":{
					"index":0
				},
				"metallicFactor":0
			}
		}
	],
	"meshes":[
		{
			"name":"Cube.163",
			"primitives":[
				{
					"attributes":{
						"POSITION":0,
						"NORMAL":1,
						"TEXCOORD_0":2
					},
					"indices":3,
					"material":0
				}
			]
		}
	],
	"textures":[
		{
			"sampler":0,
			"source":0
		}
	],
	"images":[
		{
			"mimeType":"image/png",
			"name":"palette",
			"uri":"palette.png"
		}
	],
	"accessors":[
		{
			"bufferView":0,
			"componentType":5126,
			"count":3282,
			"max":[
				1.3622221946716309,
				0.9401015043258667,
				0.41999998688697815
			],
			"min":[
				-0.1177777647972107,
				-0.44999998807907104,
				-0.41999998688697815
			],
			"type":"VEC3"
		},
		{
			"bufferView":1,
			"componentType":5126,
			"count":3282,
			"type":"VEC3"
		},
		{
			"bufferView":2,
			"componentType":5126,
			"count":3282,
			"type":"VEC2"
		},
		{
			"bufferView":3,
			"componentType":5123,
			"count":5676,
			"type":"SCALAR"
		}
	],
	"bufferViews":[
		{
			"buffer":0,
			"byteLength":39384,
			"byteOffset":0,
			"target":34962
		},
		{
			"buffer":0,
			"byteLength":39384,
			"byteOffset":39384,
			"target":34962
		},
		{
			"buffer":0,
			"byteLength":26256,
			"byteOffset":78768,
			"target":34962
		},
		{
			"buffer":0,
			"byteLength":11352,
			"byteOffset":105024,
			"target":34963
		}
	],
	"samplers":[
		{
			"magFilter":9728,
			"minFilter":9984
		}
	],
	"buffers":[
		{
			"byteLength":116376,
			"uri":"b_till.bin"
		}
	]
}
